<mxfile host="65bd71144e">
    <diagram id="xYVShIEASfLQXfLaEPTF" name="Page-1">
        <mxGraphModel dx="1680" dy="608" grid="1" gridSize="10" guides="1" tooltips="1" connect="1" arrows="1" fold="1" page="1" pageScale="1" pageWidth="827" pageHeight="1169" math="0" shadow="0">
            <root>
                <mxCell id="0"/>
                <mxCell id="1" parent="0"/>
                <mxCell id="64" value="Consumer Group" style="rounded=0;whiteSpace=wrap;html=1;fillColor=#fff2cc;strokeColor=#d6b656;verticalAlign=top;" vertex="1" parent="1">
                    <mxGeometry x="555" y="1025" width="120" height="235" as="geometry"/>
                </mxCell>
                <mxCell id="2" value="Topic" style="whiteSpace=wrap;html=1;fillColor=#fff2cc;horizontal=1;verticalAlign=top;strokeColor=#d6b656;" parent="1" vertex="1">
                    <mxGeometry x="190" y="120" width="310" height="90" as="geometry"/>
                </mxCell>
                <mxCell id="3" value="1" style="whiteSpace=wrap;html=1;aspect=fixed;fillColor=none;" vertex="1" parent="1">
                    <mxGeometry x="210" y="150" width="40" height="40" as="geometry"/>
                </mxCell>
                <mxCell id="4" value="2" style="whiteSpace=wrap;html=1;aspect=fixed;fillColor=none;" vertex="1" parent="1">
                    <mxGeometry x="280" y="150" width="40" height="40" as="geometry"/>
                </mxCell>
                <mxCell id="5" value="3" style="whiteSpace=wrap;html=1;aspect=fixed;fillColor=none;" vertex="1" parent="1">
                    <mxGeometry x="350" y="150" width="40" height="40" as="geometry"/>
                </mxCell>
                <mxCell id="6" value="4" style="whiteSpace=wrap;html=1;aspect=fixed;fillColor=none;" vertex="1" parent="1">
                    <mxGeometry x="420" y="150" width="40" height="40" as="geometry"/>
                </mxCell>
                <mxCell id="9" style="edgeStyle=none;html=1;entryX=0.5;entryY=0;entryDx=0;entryDy=0;" edge="1" parent="1" source="7" target="5">
                    <mxGeometry relative="1" as="geometry">
                        <Array as="points">
                            <mxPoint x="370" y="115"/>
                        </Array>
                    </mxGeometry>
                </mxCell>
                <mxCell id="21" value="Offset" style="edgeLabel;html=1;align=center;verticalAlign=middle;resizable=0;points=[];" vertex="1" connectable="0" parent="9">
                    <mxGeometry x="-0.3596" y="2" relative="1" as="geometry">
                        <mxPoint as="offset"/>
                    </mxGeometry>
                </mxCell>
                <mxCell id="7" value="Consumer&amp;nbsp;&lt;br&gt;1" style="ellipse;whiteSpace=wrap;html=1;aspect=fixed;fillColor=#b1ddf0;strokeColor=#10739e;" vertex="1" parent="1">
                    <mxGeometry x="50" y="80" width="70" height="70" as="geometry"/>
                </mxCell>
                <mxCell id="10" style="edgeStyle=none;html=1;entryX=0.5;entryY=1;entryDx=0;entryDy=0;" edge="1" parent="1" source="8" target="3">
                    <mxGeometry relative="1" as="geometry">
                        <Array as="points">
                            <mxPoint x="230" y="235"/>
                        </Array>
                    </mxGeometry>
                </mxCell>
                <mxCell id="20" value="Offset" style="edgeLabel;html=1;align=center;verticalAlign=middle;resizable=0;points=[];" vertex="1" connectable="0" parent="10">
                    <mxGeometry x="-0.1667" y="2" relative="1" as="geometry">
                        <mxPoint as="offset"/>
                    </mxGeometry>
                </mxCell>
                <mxCell id="8" value="Consumer&amp;nbsp;&lt;br&gt;2" style="ellipse;whiteSpace=wrap;html=1;aspect=fixed;fillColor=#fad7ac;strokeColor=#b46504;" vertex="1" parent="1">
                    <mxGeometry x="50" y="200" width="70" height="70" as="geometry"/>
                </mxCell>
                <mxCell id="11" value="Broker" style="whiteSpace=wrap;html=1;fillColor=#d5e8d4;horizontal=1;verticalAlign=top;strokeColor=#82b366;" vertex="1" parent="1">
                    <mxGeometry x="180" y="310" width="310" height="140" as="geometry"/>
                </mxCell>
                <mxCell id="24" style="edgeStyle=none;html=1;" edge="1" parent="1" source="17" target="22">
                    <mxGeometry relative="1" as="geometry"/>
                </mxCell>
                <mxCell id="25" style="edgeStyle=none;html=1;entryX=0;entryY=0.5;entryDx=0;entryDy=0;" edge="1" parent="1" source="17" target="23">
                    <mxGeometry relative="1" as="geometry">
                        <Array as="points">
                            <mxPoint x="150" y="410"/>
                        </Array>
                    </mxGeometry>
                </mxCell>
                <mxCell id="17" value="Producer" style="ellipse;whiteSpace=wrap;html=1;aspect=fixed;fillColor=#fad9d5;strokeColor=#ae4132;" vertex="1" parent="1">
                    <mxGeometry x="30" y="330" width="70" height="70" as="geometry"/>
                </mxCell>
                <mxCell id="26" style="edgeStyle=none;html=1;entryX=1;entryY=0.5;entryDx=0;entryDy=0;" edge="1" parent="1" source="19" target="22">
                    <mxGeometry relative="1" as="geometry"/>
                </mxCell>
                <mxCell id="19" value="Consumer&lt;br&gt;1" style="ellipse;whiteSpace=wrap;html=1;aspect=fixed;fillColor=#fad7ac;strokeColor=#b46504;" vertex="1" parent="1">
                    <mxGeometry x="560" y="330" width="70" height="70" as="geometry"/>
                </mxCell>
                <mxCell id="22" value="Topic 1" style="whiteSpace=wrap;html=1;fillColor=#fff2cc;horizontal=1;verticalAlign=top;strokeColor=#d6b656;" vertex="1" parent="1">
                    <mxGeometry x="200" y="345" width="270" height="40" as="geometry"/>
                </mxCell>
                <mxCell id="23" value="Topic 2" style="whiteSpace=wrap;html=1;fillColor=#fff2cc;horizontal=1;verticalAlign=top;strokeColor=#d6b656;" vertex="1" parent="1">
                    <mxGeometry x="200" y="390" width="270" height="40" as="geometry"/>
                </mxCell>
                <mxCell id="28" style="edgeStyle=none;html=1;entryX=1;entryY=0.5;entryDx=0;entryDy=0;" edge="1" parent="1" source="27" target="23">
                    <mxGeometry relative="1" as="geometry">
                        <Array as="points">
                            <mxPoint x="520" y="410"/>
                        </Array>
                    </mxGeometry>
                </mxCell>
                <mxCell id="27" value="Consumer&lt;br&gt;2" style="ellipse;whiteSpace=wrap;html=1;aspect=fixed;fillColor=#b1ddf0;strokeColor=#10739e;" vertex="1" parent="1">
                    <mxGeometry x="560" y="420" width="70" height="70" as="geometry"/>
                </mxCell>
                <mxCell id="29" value="Broker Leader" style="whiteSpace=wrap;html=1;fillColor=#d5e8d4;horizontal=1;verticalAlign=top;strokeColor=#82b366;" vertex="1" parent="1">
                    <mxGeometry x="185" y="560" width="310" height="150" as="geometry"/>
                </mxCell>
                <mxCell id="48" style="edgeStyle=none;html=1;entryX=0;entryY=0.5;entryDx=0;entryDy=0;" edge="1" parent="1" source="32" target="35">
                    <mxGeometry relative="1" as="geometry">
                        <Array as="points">
                            <mxPoint x="120" y="640"/>
                        </Array>
                    </mxGeometry>
                </mxCell>
                <mxCell id="49" style="edgeStyle=none;html=1;entryX=0;entryY=0.5;entryDx=0;entryDy=0;" edge="1" parent="1" source="32" target="46">
                    <mxGeometry relative="1" as="geometry">
                        <Array as="points">
                            <mxPoint x="120" y="840"/>
                        </Array>
                    </mxGeometry>
                </mxCell>
                <mxCell id="32" value="Producer" style="ellipse;whiteSpace=wrap;html=1;aspect=fixed;fillColor=#fad9d5;strokeColor=#ae4132;" vertex="1" parent="1">
                    <mxGeometry x="10" y="730" width="70" height="70" as="geometry"/>
                </mxCell>
                <mxCell id="33" style="edgeStyle=none;html=1;entryX=1;entryY=0.5;entryDx=0;entryDy=0;" edge="1" parent="1" source="34" target="35">
                    <mxGeometry relative="1" as="geometry"/>
                </mxCell>
                <mxCell id="34" value="Consumer 1" style="ellipse;whiteSpace=wrap;html=1;aspect=fixed;fillColor=#fad7ac;strokeColor=#b46504;" vertex="1" parent="1">
                    <mxGeometry x="580" y="710" width="70" height="70" as="geometry"/>
                </mxCell>
                <mxCell id="35" value="Partition 1 (Ecriture)" style="whiteSpace=wrap;html=1;fillColor=#ffe6cc;horizontal=1;verticalAlign=top;strokeColor=#d79b00;" vertex="1" parent="1">
                    <mxGeometry x="205" y="595" width="270" height="40" as="geometry"/>
                </mxCell>
                <mxCell id="36" value="Partition 2 (Réplicat)" style="whiteSpace=wrap;html=1;fillColor=#fff2cc;horizontal=1;verticalAlign=top;strokeColor=#d6b656;" vertex="1" parent="1">
                    <mxGeometry x="205" y="640" width="270" height="40" as="geometry"/>
                </mxCell>
                <mxCell id="44" value="Broker 2" style="whiteSpace=wrap;html=1;fillColor=#d5e8d4;horizontal=1;verticalAlign=top;strokeColor=#82b366;" vertex="1" parent="1">
                    <mxGeometry x="185" y="740" width="310" height="150" as="geometry"/>
                </mxCell>
                <mxCell id="45" value="Partition 1 (Réplicat)" style="whiteSpace=wrap;html=1;fillColor=#fff2cc;horizontal=1;verticalAlign=top;strokeColor=#d6b656;" vertex="1" parent="1">
                    <mxGeometry x="205" y="775" width="270" height="40" as="geometry"/>
                </mxCell>
                <mxCell id="46" value="Partition 2 (Ecriture))" style="whiteSpace=wrap;html=1;fillColor=#ffe6cc;horizontal=1;verticalAlign=top;strokeColor=#d79b00;" vertex="1" parent="1">
                    <mxGeometry x="205" y="820" width="270" height="40" as="geometry"/>
                </mxCell>
                <mxCell id="51" style="edgeStyle=none;html=1;entryX=1;entryY=0.5;entryDx=0;entryDy=0;" edge="1" parent="1" source="34" target="46">
                    <mxGeometry relative="1" as="geometry"/>
                </mxCell>
                <mxCell id="52" value="Broker Leader" style="whiteSpace=wrap;html=1;fillColor=#d5e8d4;horizontal=1;verticalAlign=top;strokeColor=#82b366;" vertex="1" parent="1">
                    <mxGeometry x="175" y="980" width="310" height="150" as="geometry"/>
                </mxCell>
                <mxCell id="53" style="edgeStyle=none;html=1;entryX=0;entryY=0.5;entryDx=0;entryDy=0;" edge="1" parent="1" source="55" target="58">
                    <mxGeometry relative="1" as="geometry">
                        <Array as="points">
                            <mxPoint x="110" y="1060"/>
                        </Array>
                    </mxGeometry>
                </mxCell>
                <mxCell id="54" style="edgeStyle=none;html=1;entryX=0;entryY=0.5;entryDx=0;entryDy=0;" edge="1" parent="1" source="55" target="62">
                    <mxGeometry relative="1" as="geometry">
                        <Array as="points">
                            <mxPoint x="110" y="1260"/>
                        </Array>
                    </mxGeometry>
                </mxCell>
                <mxCell id="55" value="Producer" style="ellipse;whiteSpace=wrap;html=1;aspect=fixed;fillColor=#fad9d5;strokeColor=#ae4132;" vertex="1" parent="1">
                    <mxGeometry y="1150" width="70" height="70" as="geometry"/>
                </mxCell>
                <mxCell id="57" value="Consumer 2" style="ellipse;whiteSpace=wrap;html=1;aspect=fixed;fillColor=#fad7ac;strokeColor=#b46504;" vertex="1" parent="1">
                    <mxGeometry x="580" y="1160" width="70" height="70" as="geometry"/>
                </mxCell>
                <mxCell id="58" value="Partition 1 (Ecriture)" style="whiteSpace=wrap;html=1;fillColor=#ffe6cc;horizontal=1;verticalAlign=top;strokeColor=#d79b00;" vertex="1" parent="1">
                    <mxGeometry x="195" y="1015" width="270" height="40" as="geometry"/>
                </mxCell>
                <mxCell id="59" value="Partition 2 (Réplicat)" style="whiteSpace=wrap;html=1;fillColor=#fff2cc;horizontal=1;verticalAlign=top;strokeColor=#d6b656;" vertex="1" parent="1">
                    <mxGeometry x="195" y="1060" width="270" height="40" as="geometry"/>
                </mxCell>
                <mxCell id="60" value="Broker 2" style="whiteSpace=wrap;html=1;fillColor=#d5e8d4;horizontal=1;verticalAlign=top;strokeColor=#82b366;" vertex="1" parent="1">
                    <mxGeometry x="175" y="1160" width="310" height="150" as="geometry"/>
                </mxCell>
                <mxCell id="61" value="Partition 1 (Réplicat)" style="whiteSpace=wrap;html=1;fillColor=#fff2cc;horizontal=1;verticalAlign=top;strokeColor=#d6b656;" vertex="1" parent="1">
                    <mxGeometry x="195" y="1195" width="270" height="40" as="geometry"/>
                </mxCell>
                <mxCell id="62" value="Partition 2 (Ecriture)" style="whiteSpace=wrap;html=1;fillColor=#ffe6cc;horizontal=1;verticalAlign=top;strokeColor=#d79b00;" vertex="1" parent="1">
                    <mxGeometry x="195" y="1240" width="270" height="40" as="geometry"/>
                </mxCell>
                <mxCell id="63" style="edgeStyle=none;html=1;entryX=1;entryY=0.5;entryDx=0;entryDy=0;" edge="1" parent="1" source="57" target="62">
                    <mxGeometry relative="1" as="geometry"/>
                </mxCell>
                <mxCell id="66" style="edgeStyle=none;html=1;entryX=1;entryY=0.5;entryDx=0;entryDy=0;" edge="1" parent="1" source="65" target="58">
                    <mxGeometry relative="1" as="geometry"/>
                </mxCell>
                <mxCell id="65" value="Consumer 1" style="ellipse;whiteSpace=wrap;html=1;aspect=fixed;fillColor=#fad7ac;strokeColor=#b46504;" vertex="1" parent="1">
                    <mxGeometry x="580" y="1055" width="70" height="70" as="geometry"/>
                </mxCell>
                <mxCell id="67" value="Consumer Group" style="rounded=0;whiteSpace=wrap;html=1;fillColor=#fff2cc;strokeColor=#d6b656;verticalAlign=top;" vertex="1" parent="1">
                    <mxGeometry x="595" y="1469" width="120" height="235" as="geometry"/>
                </mxCell>
                <mxCell id="68" value="T" style="whiteSpace=wrap;html=1;fillColor=#d5e8d4;horizontal=1;verticalAlign=top;strokeColor=#82b366;" vertex="1" parent="1">
                    <mxGeometry x="215" y="1424" width="310" height="216" as="geometry"/>
                </mxCell>
                <mxCell id="69" style="edgeStyle=none;html=1;entryX=0;entryY=0.5;entryDx=0;entryDy=0;" edge="1" parent="1" source="71" target="73">
                    <mxGeometry relative="1" as="geometry">
                        <Array as="points">
                            <mxPoint x="150" y="1504"/>
                        </Array>
                    </mxGeometry>
                </mxCell>
                <mxCell id="70" style="edgeStyle=none;html=1;entryX=0;entryY=0.5;entryDx=0;entryDy=0;" edge="1" parent="1" source="71">
                    <mxGeometry relative="1" as="geometry">
                        <Array as="points">
                            <mxPoint x="150" y="1704"/>
                        </Array>
                        <mxPoint x="235" y="1704" as="targetPoint"/>
                    </mxGeometry>
                </mxCell>
                <mxCell id="71" value="Producer" style="ellipse;whiteSpace=wrap;html=1;aspect=fixed;fillColor=#fad9d5;strokeColor=#ae4132;" vertex="1" parent="1">
                    <mxGeometry x="40" y="1594" width="70" height="70" as="geometry"/>
                </mxCell>
                <mxCell id="72" value="Consumer 2" style="ellipse;whiteSpace=wrap;html=1;aspect=fixed;fillColor=#fad7ac;strokeColor=#b46504;" vertex="1" parent="1">
                    <mxGeometry x="620" y="1604" width="70" height="70" as="geometry"/>
                </mxCell>
                <mxCell id="73" value="Partition 1 (Ecriture)" style="whiteSpace=wrap;html=1;fillColor=#ffe6cc;horizontal=1;verticalAlign=top;strokeColor=#d79b00;" vertex="1" parent="1">
                    <mxGeometry x="235" y="1459" width="270" height="40" as="geometry"/>
                </mxCell>
                <mxCell id="78" style="edgeStyle=none;html=1;entryX=1;entryY=0.5;entryDx=0;entryDy=0;" edge="1" parent="1" source="72">
                    <mxGeometry relative="1" as="geometry">
                        <mxPoint x="505" y="1704" as="targetPoint"/>
                    </mxGeometry>
                </mxCell>
                <mxCell id="80" value="Consumer 1" style="ellipse;whiteSpace=wrap;html=1;aspect=fixed;fillColor=#fad7ac;strokeColor=#b46504;" vertex="1" parent="1">
                    <mxGeometry x="50" y="1459" width="70" height="70" as="geometry"/>
                </mxCell>
            </root>
        </mxGraphModel>
    </diagram>
</mxfile>